<svg xmlns="http://www.w3.org/2000/svg" xmlns:xlink="http://www.w3.org/1999/xlink" version="1.1" x="0px" y="0px" viewBox="0 0 100 125" style="enable-background:new 0 0 100 100;" xml:space="preserve"><path d="M54.5,50L98.1,6.4c1.2-1.2,1.2-3,0-4.2c-1.1-1.2-3-1.2-4.2,0L50.4,45.8L6,1.4c-1.1-1.1-3-1.1-4.2,0c-1.2,1.2-1.2,3,0,4.2  L46.2,50L1.8,94.4c-1.2,1.2-1.2,3,0,4.2c0.6,0.6,1.3,0.9,2.1,0.9s1.5-0.3,2.1-0.9l44.4-44.4l43.5,43.5c0.6,0.6,1.3,0.9,2.1,0.9  c0.8,0,1.5-0.3,2.1-0.9c1.2-1.1,1.2-3,0-4.2L54.5,50z"/></svg>